<?xml version="1.0" encoding="utf-8"?>
<!-- Generator: Adobe Illustrator 21.0.0, SVG Export Plug-In . SVG Version: 6.00 Build 0)  -->
<svg version="1.1" id="Layer_1" xmlns="http://www.w3.org/2000/svg" xmlns:xlink="http://www.w3.org/1999/xlink" x="0px" y="0px"
	 viewBox="0 0 512 512" style="enable-background:new 0 0 512 512;" xml:space="preserve">
<style type="text/css">
	.st0{fill:#333333;}
	.st1{fill:#E6E6E6;}
</style>
<g>
	<path class="st0" d="M256,0C114.6,0,0,114.6,0,256c0,141.4,114.6,256,256,256c141.4,0,256-114.6,256-256C512,114.6,397.4,0,256,0z
		 M256,468.6c-117.4,0-212.6-95.2-212.6-212.6c0-117.4,95.2-212.6,212.6-212.6c117.4,0,212.6,95.2,212.6,212.6
		C468.6,373.4,373.4,468.6,256,468.6z"/>
	<path class="st1" d="M256,43.4C138.6,43.4,43.4,138.6,43.4,256c0,117.4,95.2,212.6,212.6,212.6c117.4,0,212.6-95.2,212.6-212.6
		C468.6,138.6,373.4,43.4,256,43.4z M256,404.6c-12.6,0-22.9-10.2-22.9-22.9c0-12.6,10.2-22.9,22.9-22.9s22.9,10.2,22.9,22.9
		C278.9,394.3,268.6,404.6,256,404.6z M291.9,279.1c-10.6,4.1-17.6,14.2-17.7,25.6v13c0,2.5-2.1,4.6-4.6,4.6h-27.4
		c-2.5,0-4.6-2.1-4.6-4.6v-12.3c0-13.2,3.8-26.2,11.4-37.1c7.4-10.6,17.7-18.7,29.8-23.4c19.4-7.5,32-23.8,32-41.5
		c0-25.2-24.6-45.7-54.9-45.7s-54.9,20.5-54.9,45.7v4.3c0,2.5-2.1,4.6-4.6,4.6h-27.4c-2.5,0-4.6-2.1-4.6-4.6v-4.3
		c0-22.5,9.8-43.4,27.7-59c17.1-15,39.8-23.3,63.8-23.3s46.6,8.3,63.8,23.3c17.8,15.6,27.7,36.6,27.7,59
		C347.4,236.5,325.7,266.2,291.9,279.1z"/>
	<path class="st0" d="M233.1,381.7c0,12.6,10.2,22.9,22.9,22.9c12.6,0,22.9-10.2,22.9-22.9c0-12.6-10.2-22.9-22.9-22.9
		C243.4,358.9,233.1,369.1,233.1,381.7z M319.8,144.4c-17.1-15-39.8-23.3-63.8-23.3s-46.6,8.2-63.8,23.3
		c-17.8,15.6-27.7,36.6-27.7,59v4.3c0,2.5,2.1,4.6,4.6,4.6h27.4c2.5,0,4.6-2.1,4.6-4.6v-4.3c0-25.2,24.6-45.7,54.9-45.7
		s54.9,20.5,54.9,45.7c0,17.8-12.6,34.1-32,41.5c-12.1,4.6-22.4,12.7-29.8,23.4c-7.5,10.9-11.4,23.9-11.4,37.1v12.3
		c0,2.5,2.1,4.6,4.6,4.6h27.4c2.5,0,4.6-2.1,4.6-4.6v-13c0.1-11.4,7.1-21.5,17.7-25.6c33.7-13,55.5-42.7,55.5-75.7
		C347.4,181,337.6,160,319.8,144.4z"/>
</g>
</svg>
